<svg width="18" height="18" viewBox="0 0 18 18" fill="none" xmlns="http://www.w3.org/2000/svg">
<path d="M9.03774 0.290527C4.09761 0.290527 0.0772258 4.16285 0.0754839 8.92182C0.0743226 10.4437 0.487742 11.929 1.27161 13.2372L0 17.7099L4.75142 16.5097C6.07309 17.2011 7.54268 17.5617 9.03426 17.5607H9.03774C13.9779 17.5607 17.9983 13.6878 18 8.92879C18.0012 6.62362 17.0698 4.45375 15.3772 2.82272C13.6852 1.19111 11.4352 0.291108 9.03774 0.290527ZM9.03774 16.1027H9.03484C7.69819 16.1027 6.3871 15.7566 5.24323 15.1028L4.97032 14.9472L2.15187 15.659L2.90439 13.0113L2.72729 12.7401C1.98343 11.6056 1.58745 10.2784 1.58806 8.92182C1.58981 4.96588 4.932 1.74853 9.04064 1.74853C11.0299 1.74911 12.9002 2.4964 14.3071 3.85221C15.714 5.20801 16.488 7.01092 16.4868 8.92821C16.4851 12.8841 13.1435 16.1027 9.03716 16.1027H9.03774ZM13.1237 10.7288C12.8996 10.6214 11.7987 10.0994 11.5932 10.0268C11.3882 9.95537 11.239 9.91821 11.0897 10.1342C10.9411 10.3502 10.5114 10.8362 10.3814 10.9796C10.2501 11.1236 10.1195 11.141 9.89535 11.0336C9.67123 10.9256 8.94948 10.698 8.09477 9.96292C7.42877 9.39156 6.97935 8.6855 6.84871 8.46891C6.71806 8.2535 6.83477 8.13679 6.94684 8.02937C7.04729 7.93356 7.17097 7.77795 7.28245 7.65195C7.39394 7.52595 7.4311 7.43595 7.50658 7.29195C7.5809 7.14853 7.54374 7.02195 7.48742 6.91453C7.4311 6.80595 6.984 5.74453 6.79645 5.31311C6.61529 4.89272 6.43064 4.94904 6.29303 4.94208C6.16239 4.93627 6.01374 4.93453 5.86335 4.93453C5.71529 4.93453 5.472 4.98853 5.26645 5.20453C5.06148 5.42053 4.48258 5.94195 4.48258 7.00337C4.48258 8.06537 5.28503 9.09079 5.3971 9.23479C5.50916 9.37821 6.97645 11.5574 9.22297 12.4922C9.75716 12.7134 10.1741 12.8464 10.4998 12.9463C11.0363 13.1106 11.5246 13.0868 11.9102 13.0316C12.3399 12.9695 13.2352 12.5102 13.421 12.0068C13.608 11.5034 13.608 11.0714 13.5523 10.9814C13.4977 10.8914 13.3479 10.8374 13.1237 10.7288Z" fill="#FDFDFD"/>
</svg>
