<svg width="18" height="20" viewBox="0 0 18 20" fill="none" xmlns="http://www.w3.org/2000/svg">
<path d="M15.9701 2.35718C15.4993 1.92346 13.5939 0.540754 9.34572 0.522219C9.34572 0.522219 4.33757 0.221953 1.89837 2.46098C0.541607 3.81774 0.0634038 5.8084 0.0115059 8.27355C-0.0403921 10.7387 -0.103411 15.3576 4.34869 16.6106H4.3524L4.34869 18.5234C4.34869 18.5234 4.31904 19.2982 4.8306 19.4538C5.44596 19.6466 5.80925 19.0572 6.39866 18.4233C6.72117 18.0748 7.16601 17.5633 7.50335 17.174C10.5505 17.4298 12.8896 16.8441 13.1565 16.7589C13.7719 16.5587 17.2527 16.1138 17.8162 11.4949C18.4019 6.72773 17.5345 3.71765 15.9701 2.35718ZM16.4854 11.1465C16.0072 15.0017 13.1862 15.2464 12.6672 15.4132C12.4448 15.4837 10.3874 15.9952 7.80361 15.8284C7.80361 15.8284 5.87597 18.1527 5.27544 18.7569C5.07897 18.9534 4.86396 18.9349 4.86767 18.5456C4.86767 18.2899 4.8825 15.3687 4.8825 15.3687C4.87879 15.3687 4.87879 15.3687 4.8825 15.3687C1.10878 14.3234 1.3312 10.3902 1.37197 8.33286C1.41275 6.27548 1.80199 4.58879 2.95115 3.45445C5.01595 1.58242 9.26788 1.86044 9.26788 1.86044C12.86 1.87527 14.58 2.95772 14.9804 3.321C16.3038 4.45534 16.9784 7.16886 16.4854 11.1465ZM11.3327 8.15122C11.3475 8.47002 10.8693 8.49226 10.8545 8.17346C10.8137 7.35792 10.4319 6.96127 9.64599 6.91679C9.32719 6.89825 9.35684 6.42005 9.67194 6.43859C10.7062 6.49419 11.2808 7.08731 11.3327 8.15122ZM12.0852 8.57011C12.1223 6.99834 11.1399 5.76762 9.27529 5.63046C8.96019 5.60822 8.99356 5.13002 9.30865 5.15226C11.4587 5.30795 12.6042 6.78704 12.5634 8.58123C12.5597 8.90003 12.0778 8.8852 12.0852 8.57011ZM13.8275 9.06685C13.8312 9.38565 13.3493 9.38936 13.3493 9.07055C13.327 6.04935 11.3141 4.40344 8.87123 4.38491C8.55613 4.3812 8.55613 3.90671 8.87123 3.90671C11.6033 3.92524 13.8015 5.8121 13.8275 9.06685ZM13.4086 12.7034V12.7108C13.0082 13.4152 12.2594 14.1936 11.4884 13.9453L11.481 13.9341C10.6988 13.7154 8.8564 12.7664 7.6924 11.8397C7.09187 11.3652 6.54323 10.8054 6.12064 10.2679C5.73881 9.78971 5.35329 9.22254 4.97888 8.54045C4.18929 7.11326 4.01506 6.47566 4.01506 6.47566C3.76669 5.7046 4.54146 4.95579 5.24949 4.55543H5.25691C5.59795 4.3775 5.92416 4.43681 6.14288 4.7C6.14288 4.7 6.60255 5.24864 6.79902 5.51925C6.98437 5.77133 7.23273 6.17539 7.36248 6.40152C7.58861 6.80558 7.44774 7.21706 7.22532 7.38758L6.78048 7.74345C6.55435 7.92509 6.58401 8.26243 6.58401 8.26243C6.58401 8.26243 7.24386 10.7572 9.70901 11.3874C9.70901 11.3874 10.0463 11.4171 10.228 11.191L10.5839 10.7461C10.7544 10.5237 11.1659 10.3828 11.5699 10.609C12.1148 10.9166 12.8081 11.3948 13.2677 11.8286C13.5272 12.0399 13.5865 12.3624 13.4086 12.7034Z" fill="#FDFDFD"/>
</svg>
