<?xml version="1.0" standalone="no"?>
<!DOCTYPE svg PUBLIC "-//W3C//DTD SVG 20010904//EN"
 "http://www.w3.org/TR/2001/REC-SVG-20010904/DTD/svg10.dtd">
<svg version="1.0" xmlns="http://www.w3.org/2000/svg"
 width="700.000000pt" height="700.000000pt" viewBox="0 0 700.000000 700.000000"
 preserveAspectRatio="xMidYMid meet">
<metadata>
Created by potrace 1.14, written by Peter Selinger 2001-2017
</metadata>
<g transform="translate(0.000000,700.000000) scale(0.100000,-0.100000)"
fill="#000000" stroke="none">
<path d="M2985 6486 l-510 -511 -723 0 c-474 0 -722 -3 -723 -10 -1 -5 -2
-332 -3 -725 l-1 -715 -513 -513 -512 -512 513 -513 512 -512 0 -723 c0 -477
3 -723 10 -725 5 -2 332 -3 725 -2 l714 1 513 -513 513 -513 513 513 513 512
722 0 c476 0 722 3 723 10 1 5 2 332 3 725 l1 715 513 512 512 513 -513 513
-512 512 1 715 c0 393 -1 720 -3 725 -2 7 -253 10 -725 10 l-723 0 -512 512
c-282 282 -514 513 -516 512 -1 0 -232 -231 -512 -513z m498 77 c-1 -192 -2
-402 -2 -468 l-1 -120 -464 0 c-311 0 -462 3 -458 10 8 14 916 924 922 925 3
0 4 -156 3 -347z m515 -128 c250 -250 453 -456 451 -456 -2 -1 -210 -2 -461
-3 l-458 -1 0 457 c0 252 3 458 6 458 4 0 211 -205 462 -455z m-1578 -512 c0
-4 -621 -624 -641 -640 -13 -10 -67 40 -343 316 l-328 328 656 0 c361 0 656
-2 656 -4z m1060 -172 l0 -176 -655 0 -655 0 0 -230 0 -230 548 1 547 0 2
-469 1 -468 -29 46 c-16 25 -29 48 -29 50 0 6 -106 174 -185 295 -179 271
-374 390 -620 377 -64 -3 -129 -14 -180 -29 l-80 -25 -172 170 -172 171 347
346 346 347 493 0 493 0 0 -176z m1373 -172 l346 -345 -174 -174 -174 -174
-63 22 c-226 78 -434 26 -652 -162 -109 -93 -245 -289 -342 -491 l-39 -80 -3
465 c-1 256 0 470 2 475 3 8 169 11 521 10 334 0 519 4 524 10 8 12 8 416 -1
430 -4 7 -226 10 -637 10 l-631 0 0 176 0 176 489 -1 488 -1 346 -346z m711
20 c-276 -276 -330 -326 -343 -316 -21 16 -641 636 -641 640 0 2 295 4 656 4
l656 0 -328 -328z m-4158 -693 c-179 -179 -328 -326 -329 -326 -2 0 -4 295 -3
656 l0 655 329 -329 330 -330 -327 -326z m4520 329 c0 -360 -1 -655 -3 -655
-2 0 -150 147 -329 326 l-326 327 328 328 c181 181 329 329 329 329 1 0 1
-295 1 -655z m-3836 -366 c0 -4 -13 -12 -28 -18 -32 -13 -32 -15 -17 -216 4
-55 8 -106 8 -112 1 -19 10 -17 104 31 80 41 178 74 188 65 2 -2 186 -186 409
-408 398 -397 405 -404 415 -455 14 -64 23 -139 25 -191 l1 -40 -488 1 c-338
1 -492 5 -499 12 -13 13 -16 138 -5 194 7 39 48 152 66 184 5 10 17 33 26 51
l15 32 -133 -4 c-191 -7 -190 -7 -232 -69 -61 -92 -84 -179 -85 -318 l0 -78
-393 0 -394 0 1 489 1 488 345 346 345 346 163 -162 c89 -89 162 -165 162
-168z m3836 -853 l1 -491 -36 -5 c-20 -3 -198 -4 -396 -2 l-360 2 3 93 c4 108
-14 200 -57 285 -49 96 -46 95 -241 99 -94 2 -170 1 -170 -1 0 -3 15 -29 34
-58 40 -64 73 -135 93 -202 15 -50 21 -186 9 -205 -5 -7 -170 -10 -514 -8
l-507 2 1 50 c1 28 4 82 8 120 l7 70 427 428 427 429 48 -6 c26 -3 87 -21 135
-41 127 -53 118 -52 121 -8 1 21 4 54 6 73 2 19 5 64 6 100 2 63 1 65 -35 94
l-37 30 167 167 168 168 345 -346 346 -345 1 -492z m-3375 584 c58 -21 177
-103 256 -175 125 -113 232 -269 294 -429 16 -43 29 -80 27 -82 -2 -2 -165
158 -363 356 l-359 359 49 -5 c27 -3 71 -14 96 -24z m2038 25 c-52 -57 -753
-754 -756 -751 -7 7 50 151 85 216 57 106 138 213 242 318 131 133 197 178
302 206 50 14 136 21 127 11z m-3564 -635 l0 -460 -457 0 c-252 0 -458 3 -458
6 0 7 903 913 910 914 3 0 5 -207 5 -460z m5880 -470 c-2 -3 -212 -4 -467 -4
l-463 2 -1 453 c0 250 2 460 4 467 2 7 210 -193 467 -450 254 -255 461 -465
460 -468z m-5880 -495 c0 -251 -2 -460 -5 -465 -3 -4 -213 200 -467 455 -254
254 -461 464 -459 466 3 2 213 3 468 2 l463 -1 0 -457z m864 395 c61 -181 281
-397 512 -504 41 -19 131 -53 200 -76 69 -23 131 -45 138 -49 8 -5 -100 -120
-315 -335 -324 -325 -326 -327 -348 -309 -11 10 -24 23 -28 28 -4 6 -8 -15 -8
-46 l0 -57 -135 -137 -135 -137 -348 347 -347 347 -1 494 0 494 397 0 397 0
21 -60z m1319 -60 l3 -116 -154 -155 -155 -155 -58 21 c-155 57 -286 127 -373
200 -84 71 -183 191 -227 277 l-24 47 493 -2 492 -2 3 -115z m1515 111 l67 -1
-25 -50 c-40 -79 -114 -167 -226 -266 -77 -68 -243 -165 -370 -215 l-52 -20
-163 163 -164 163 -5 108 c-4 59 -4 110 -2 115 4 5 589 8 940 3z m1203 -490
l-1 -489 -342 -341 c-187 -187 -344 -341 -348 -341 -5 0 -64 56 -133 125 -122
122 -125 126 -124 167 2 39 1 40 -16 25 -10 -10 -23 -17 -28 -17 -5 0 -161
153 -347 339 l-338 338 138 58 c275 116 410 196 530 313 105 101 151 171 193
285 l10 27 403 0 403 0 0 -489z m964 482 c0 -10 -910 -916 -911 -907 -1 5 -2
213 -3 462 l-1 452 457 0 c252 -1 458 -4 458 -7z m-3684 -321 c-2 -4 -7 -36
-10 -72 -6 -59 -34 -211 -40 -217 -3 -3 -189 58 -196 64 -7 6 233 242 242 237
5 -3 7 -8 4 -12z m728 -109 c70 -70 123 -130 119 -133 -8 -7 -112 -34 -169
-44 -22 -4 -34 -2 -37 8 -13 33 -51 296 -43 296 2 0 61 -57 130 -127z m-1017
-293 c59 -16 127 -34 150 -40 l42 -10 -26 -58 c-135 -308 -243 -449 -406 -531
-86 -43 -189 -71 -269 -71 -64 0 -180 25 -229 51 l-41 20 333 335 c184 184
335 334 336 334 1 0 51 -13 110 -30z m1622 -311 c188 -187 341 -344 341 -348
0 -9 -94 -38 -160 -50 -199 -34 -467 75 -631 257 -95 106 -176 272 -175 356
l1 38 110 33 c61 18 121 38 135 43 14 6 28 11 31 11 4 1 160 -152 348 -340z
m-679 -176 c100 -184 206 -321 310 -399 74 -55 232 -122 329 -139 14 -2 46 -8
71 -12 135 -24 317 12 353 69 15 24 32 91 43 168 3 25 7 47 9 48 2 2 53 -47
115 -108 l111 -112 -347 -346 -346 -347 -494 -1 -494 0 0 178 0 178 48 1 c94
2 147 10 166 27 18 16 18 35 13 511 l-5 494 38 -66 c21 -36 57 -100 80 -144z
m-603 -307 c-1 -272 2 -498 6 -503 5 -4 53 -10 108 -11 l99 -4 -2 -176 -3
-177 -485 -1 -485 -1 -342 342 c-189 189 -343 346 -343 350 0 4 51 58 114 121
l113 113 1 -76 c0 -42 6 -88 12 -102 35 -85 263 -141 431 -106 72 15 181 54
232 82 187 105 370 316 518 601 13 23 24 42 26 42 1 0 1 -222 0 -494z m-1852
149 c179 -179 325 -328 325 -331 0 -6 -646 -654 -652 -654 -3 0 -4 295 -4 655
0 360 1 655 3 655 2 0 149 -146 328 -325z m4521 -325 c0 -357 -1 -650 -3 -650
-2 0 -150 146 -329 324 l-325 324 323 325 c178 179 326 326 329 326 3 1 5
-291 5 -649z m-3819 -378 c172 -171 313 -314 313 -315 0 -3 -1292 -2 -1298 1
-2 1 142 148 320 326 264 265 326 322 338 312 8 -6 155 -152 327 -324z m3458
14 c179 -179 325 -326 325 -329 0 -2 -295 -4 -654 -3 -481 0 -653 3 -648 11
12 19 637 643 645 644 4 1 154 -145 332 -323z m-2095 -838 c0 -252 -3 -458 -6
-458 -7 0 -914 905 -914 911 0 2 207 4 460 4 l460 1 0 -458z m980 453 c0 -8
-918 -921 -926 -921 -9 0 -9 893 0 915 2 7 147 10 465 10 253 0 461 -1 461 -4z"/>
</g>
</svg>
