<svg xmlns="http://www.w3.org/2000/svg" width="700" height="700" fill="none"><g filter="url(#a)"><path fill="#6D1B2D" fill-opacity=".5" d="m690.343 353.197.006-1.551 1.651-1.651-100.17-100.171V108.17H450.17L350 8 249.83 108.17H108.17v141.66l-96.973 96.973-1.54-.005-.005 1.551L8 350l100.17 100.17v141.66h141.66L350 692l100.17-100.17h141.66V450.17l96.973-96.973h1.54Zm-6.574-4.743-91.939-.227v-91.712l91.939 91.939ZM482.015 214.751c-18.738-8.85-37.688-7.474-54.256 2.176-25.228 14.694-34.878 33.533-46.375 53.679-3.075 6.844-4.536 9.84-6.484 13.667-1.25.778-.418-58.803-.418-93.093h102.933v-43.934H352.811l.074-34.349h95.337l67.813 67.813-34.02 34.041ZM296.554 407.088l24.756-24.778c-.714 10.116-2.255 20.443-4.827 31.294-6.76-2.249-13.424-4.346-19.929-6.516Zm15.287 22.057c-10.111 22.248-18.659 43.839-38.144 55.601-14.789 8.925-30.675 11.063-46.618 6.336-4.266-1.265-7.352-2.715-10.031-4.409l65.404-65.468c9.639 3.012 19.527 5.823 29.389 7.94Zm9.819-53.88-30.098 30.124c-19.813-6.865-37.821-14.964-51.498-30.844-7.205-7.76-12.138-15.128-14.97-22.491l96.063.238c.571 7.67.762 15.282.503 22.973Zm96.645 46.067 67.426 67.358c-3.335 1.582-7.723 3.176-13.403 4.34-38.625 7.919-79.606-27.281-82.792-62.974 0 0 16.7-4.362 28.769-8.724Zm-34.19-7.775s-3.033-13.207-5.018-31.384l26.282 26.254a150.808 150.808 0 0 1-21.264 5.13Zm-5.727-38.784c-.598-7.067-.985-14.642-.958-22.343l98.513.243c-1.349 3.69-3.271 7.384-5.822 11.1-13.17 19.141-35.148 34.174-59.735 42.966l-31.998-31.966Zm78.918-135.286-75.472 75.545c6.363-23.83 19.712-42.319 39.313-60.581 11.095-10.661 23.116-15.287 36.159-14.964Zm-109.233-92.241H219.901v44.786h107.158c0 31.469.212 66.283.212 92.156 0 0-20.814-37.487-34.889-53.668-21.406-24.614-48.274-26.906-74.905-16.489l-33.422-33.39 67.738-67.738h96.354l-.074 34.343ZM314.286 310.74l-70.909-70.835c6.41-.016 12.709 1.477 18.865 4.684 10.164 6.23 19.051 13.138 27.78 22.687 11.438 12.514 19.32 26.88 24.264 43.464Zm-101.509-94.729c-2.954 1.429-5.347 3.049-5.945 3.472-.095 12.799 2.091 32.358 2.091 32.358l6.368-2.922c7.389-4.541 14.694-7.442 21.882-8.538l79.474 79.394a159.787 159.787 0 0 1 2.213 11.926 310.185 310.185 0 0 1 1.905 15.864l-97.18-.238c-3.287-12.529-.608-25.292 7.279-40.208l2.969-5.722c-8.157 0-23.904.72-26.122.852-6.913.413-6.379 1.646-9.74 6.236-7.802 10.655-9.47 26.101-7.887 38.757l-77.192-.19v-95.264l67.812-67.812 32.073 32.035Zm-21.925 135.963c.847 4.209 2.054 7.946 3.499 10.852 10.247 20.591 32.754 39.715 59.565 48.963 7.495 2.498 15.382 5.187 23.471 7.797l-64.224 64.292c-1.837-1.461-3.663-3.07-5.801-4.87l.084 1.689c0 3.388-.042 6.315-.1 9.009l-26.462 26.488-67.987-67.982v-96.433l77.955.195Zm16.319 144.587c-.095 4.07-.154 7.945-.027 12.577 0 0-.275 6.722 5.262 9.75 19.109 10.465 39.149 8.459 60.878-2.631 20.512-11.333 35.052-30.966 46.83-51.959 1.736-3.096 6.532-10.592 6.442-12.661 0 32.839-1.233 96.073-.026 98.915.735 1.731 10.337 2.107 20.67 1.917l-.074 34.634h-95.333l-67.568-67.569 22.946-22.973Zm144.756 55.786c5.923-.196 11.687-.545 15.769-.889 7.13-.609 6.579-3.61 6.579-9.301 0-29.886.365-54.394-.91-84.068a272.504 272.504 0 0 0-.175-7.643l6.41 11.237c9.348 16.383 17.68 34.936 34.237 48.01 19.067 15.055 56.877 22.746 74.117 10.91 2.938-2.017 4.907-13.138 5.881-23.825l22.369 22.348-67.982 67.982h-96.375l.08-34.761Zm142.358-61.794c.164-2.858.243-5.532.243-7.808 0 0-1.334 1.572-4.478 3.579l-66.918-66.849c28.531-11.603 55.617-21.094 75.689-47.222 4.288-5.584 7.495-12.296 9.449-19.5l78.833.195v95.264l-67.569 67.569-25.249-25.228Zm15.075-142.522c2.594-13.704.699-28.637-6.929-40.774 0 0-1.583-3.086-2.895-4.029-4.346-3.101-35.746-1.81-35.629-1.646 11.29 15.986 17.06 31.162 13.46 46.37l-99.863-.244c.212-8.125.926-16.277 2.366-24.016l83.613-83.697c8.025 1.106 16.425 3.943 25.217 8.284l3.298 2.101c.916-9.792 1.816-15.022 2.012-26.323-.906-3.203-3.404-4.786-7.57-7.041l32.924-32.961 67.739 67.738v96.428l-77.743-.19Zm13.344-167.327 64.399-64.461v128.86l-64.399-64.399Zm61.059-67.807-64.404 64.467-64.462-64.467h128.866Zm-230.878-4.727.196-90.404 90.404 90.404h-90.6Zm-4.526-91.844-.201 91.844h-91.643l91.844-91.844Zm-167.655 160.97-64.461-64.399h128.86l-64.399 64.399Zm-67.807-61.059 64.467 64.404-64.467 64.462V116.237Zm-4.727 140.278v90.526l-90.309-.222 90.309-90.304Zm-91.939 95.031 91.939.227v91.717l-91.939-91.944ZM177.54 519.534l-64.642 64.705V454.897l64.642 64.637Zm-60.82 67.569 64.16-64.224 64.224 64.224H116.719Zm230.396 4.727-.196 90.404-90.404-90.404h90.6Zm4.526 91.844.201-91.844h91.648l-91.849 91.844Zm167.893-161.213 64.705 64.642H454.897l64.637-64.642Zm67.569 60.82-64.224-64.16 64.224-64.224v128.384Zm4.727-139.796v-90.526l90.309.222-90.309 90.304Z"/></g><defs><filter id="a" width="700" height="700" x="0" y="0" color-interpolation-filters="sRGB" filterUnits="userSpaceOnUse"><feFlood flood-opacity="0" result="BackgroundImageFix"/><feBlend in="SourceGraphic" in2="BackgroundImageFix" result="shape"/><feGaussianBlur result="effect1_foregroundBlur_120_1054" stdDeviation="4"/></filter></defs></svg>