<svg xmlns="http://www.w3.org/2000/svg" width="147" height="89" fill="none"><path fill="#CFB691" d="M3.014.688a2.5 2.5 0 0 0-.106 5l.106-5Zm69.284 22.238 1.105-2.242-1.105 2.242Zm65.794 65.6a2.5 2.5 0 0 0 2.996-1.878l5.036-21.93a2.5 2.5 0 1 0-4.873-1.118l-4.476 19.492-19.493-4.476a2.5 2.5 0 1 0-1.119 4.873l21.929 5.036ZM2.961 3.187l-.054 2.5a.171.171 0 0 0 .011 0 10.632 10.632 0 0 1 .295.01c.217.009.548.024.987.05.879.054 2.19.15 3.89.327 3.4.351 8.353 1.017 14.512 2.274 12.318 2.513 29.443 7.386 48.591 16.82l2.21-4.485C53.809 11.03 36.266 6.034 23.601 3.45 17.268 2.158 12.151 1.468 8.604 1.1A97.069 97.069 0 0 0 4.502.758a54.986 54.986 0 0 0-1.484-.07h-.002c-.001 0-.002 0-.055 2.5Zm68.232 21.981c18.945 9.334 35.278 24.847 46.93 38.144a232.666 232.666 0 0 1 13.581 17.053 181.1 181.1 0 0 1 3.607 5.18 110.027 110.027 0 0 1 1.151 1.757l.056.088.012.02.003.005 2.119-1.328a311.12 311.12 0 0 0 2.117-1.328l-.001-.003-.005-.007-.017-.028-.065-.102-.249-.388c-.219-.338-.541-.832-.964-1.464a185.781 185.781 0 0 0-3.708-5.326 237.346 237.346 0 0 0-13.877-17.424c-11.839-13.512-28.683-29.58-48.48-39.334l-2.21 4.485Z"/></svg>