<svg width="819" height="906" viewBox="0 0 819 906" fill="none" xmlns="http://www.w3.org/2000/svg">
<g filter="url(#filter0_f_3682_8554)">
<path d="M793.343 456.197L793.349 454.646L795 452.995L694.83 352.824V211.17H553.17L453 111L352.83 211.17H211.17V352.83L114.197 449.803L112.657 449.798L112.652 451.349L111 453L211.17 553.17V694.83H352.83L453 795L553.17 694.83H694.83V553.17L791.803 456.197H793.343ZM786.769 451.454L694.83 451.227V359.515L786.769 451.454ZM585.015 317.751C566.277 308.901 547.327 310.277 530.759 319.927C505.531 334.621 495.881 353.46 484.384 373.606C481.309 380.45 479.848 383.446 477.9 387.273C476.65 388.051 477.482 328.47 477.482 294.18C511.322 294.18 548.025 294.18 580.415 294.18C580.415 282.958 580.415 265.94 580.415 250.246C538.709 250.246 497.405 250.246 455.811 250.246L455.885 215.897H551.222L619.035 283.71L585.015 317.751ZM399.554 510.088L424.31 485.31C423.596 495.426 422.055 505.753 419.483 516.604C412.723 514.355 406.059 512.258 399.554 510.088ZM414.841 532.145C404.73 554.393 396.182 575.984 376.697 587.746C361.908 596.671 346.022 598.809 330.079 594.082C325.813 592.817 322.727 591.367 320.048 589.673L385.452 524.205C395.091 527.217 404.979 530.028 414.841 532.145ZM424.66 478.265L394.562 508.389C374.749 501.524 356.741 493.425 343.064 477.545C335.859 469.785 330.926 462.417 328.094 455.054L424.157 455.292C424.728 462.962 424.919 470.574 424.66 478.265ZM521.305 524.332L588.731 591.69C585.396 593.272 581.008 594.866 575.328 596.03C536.703 603.949 495.722 568.749 492.536 533.056C492.536 533.056 509.236 528.694 521.305 524.332ZM487.115 516.557C487.115 516.557 484.082 503.35 482.097 485.173L508.379 511.427C501.423 513.645 494.288 515.376 487.115 516.557ZM481.388 477.773C480.79 470.706 480.403 463.131 480.43 455.43L578.943 455.673C577.594 459.363 575.672 463.057 573.121 466.773C559.951 485.914 537.973 500.947 513.386 509.739L481.388 477.773ZM560.306 342.487L484.834 418.032C491.197 394.202 504.546 375.713 524.147 357.451C535.242 346.79 547.263 342.164 560.306 342.487ZM451.073 250.246C408.917 250.246 366.439 250.246 322.901 250.246C322.901 266.861 322.901 280.147 322.901 295.032C359.806 295.032 395.022 295.032 430.059 295.032C430.059 326.501 430.271 361.315 430.271 387.188C430.271 387.188 409.457 349.701 395.382 333.52C373.976 308.906 347.108 306.614 320.477 317.031L287.055 283.641L354.793 215.903H451.147L451.073 250.246ZM417.286 413.74L346.377 342.905C352.787 342.889 359.086 344.382 365.242 347.589C375.406 353.819 384.293 360.727 393.022 370.276C404.46 382.79 412.342 397.156 417.286 413.74ZM315.777 319.011C312.823 320.44 310.43 322.06 309.832 322.483C309.737 335.282 311.923 354.841 311.923 354.841L318.291 351.919C325.68 347.378 332.985 344.477 340.173 343.381L419.647 422.775C420.515 426.639 421.261 430.604 421.86 434.701C422.638 440.058 423.278 445.33 423.765 450.565L326.585 450.327C323.298 437.798 325.977 425.035 333.864 410.119L336.833 404.397C328.676 404.397 312.929 405.117 310.711 405.249C303.798 405.662 304.332 406.895 300.971 411.485C293.169 422.14 291.501 437.586 293.084 450.242L215.892 450.052V354.788L283.704 286.976L315.777 319.011ZM293.852 454.974C294.699 459.183 295.906 462.92 297.351 465.826C307.598 486.417 330.105 505.541 356.916 514.789C364.411 517.287 372.298 519.976 380.387 522.586L316.163 586.878C314.326 585.417 312.5 583.808 310.362 582.008L310.446 583.697C310.446 587.085 310.404 590.012 310.346 592.706L283.884 619.194L215.897 551.212V454.779L293.852 454.974ZM310.171 599.561C310.076 603.631 310.017 607.506 310.144 612.138C310.144 612.138 309.869 618.86 315.406 621.888C334.515 632.353 354.555 630.347 376.284 619.257C396.796 607.924 411.336 588.291 423.114 567.298C424.85 564.202 429.646 556.706 429.556 554.637C429.556 587.476 428.323 650.71 429.53 653.552C430.265 655.283 439.867 655.659 450.2 655.469L450.126 690.103H354.793L287.225 622.534L310.171 599.561ZM454.927 655.347C460.85 655.151 466.614 654.802 470.696 654.458C477.826 653.849 477.275 650.848 477.275 645.157C477.275 615.271 477.64 590.763 476.365 561.089C476.349 557.627 476.19 553.446 476.19 553.446C476.19 553.446 480.324 560.692 482.6 564.683C491.948 581.066 500.28 599.619 516.837 612.693C535.904 627.748 573.714 635.439 590.954 623.603C593.892 621.586 595.861 610.465 596.835 599.778L619.204 622.126L551.222 690.108H454.847L454.927 655.347ZM597.285 593.553C597.449 590.695 597.528 588.021 597.528 585.745C597.528 585.745 596.194 587.317 593.05 589.324L526.132 522.475C554.663 510.872 581.749 501.381 601.821 475.253C606.109 469.669 609.316 462.957 611.27 455.753L690.103 455.948V551.212L622.534 618.781L597.285 593.553ZM612.36 451.031C614.954 437.327 613.059 422.394 605.431 410.257C605.431 410.257 603.848 407.171 602.536 406.228C598.19 403.127 566.79 404.418 566.907 404.582C578.197 420.568 583.967 435.744 580.367 450.952L480.504 450.708C480.716 442.583 481.43 434.431 482.87 426.692L566.483 342.995C574.508 344.101 582.908 346.938 591.7 351.279L594.998 353.38C595.914 343.588 596.814 338.358 597.01 327.057C596.104 323.854 593.606 322.271 589.44 320.016L622.364 287.055L690.103 354.793V451.221L612.36 451.031ZM625.704 283.704L690.103 219.243V348.103L625.704 283.704ZM686.763 215.897L622.359 280.364L557.897 215.897H686.763ZM455.885 211.17L456.081 120.766L546.485 211.17H455.885ZM451.359 119.326L451.158 211.17H359.515L451.359 119.326ZM283.704 280.296L219.243 215.897H348.103L283.704 280.296ZM215.897 219.237L280.364 283.641L215.897 348.103V219.237ZM211.17 359.515V450.041L120.861 449.819L211.17 359.515ZM119.231 454.546L211.17 454.773V546.49L119.231 454.546ZM280.539 622.534L215.897 687.239V557.897L280.539 622.534ZM219.719 690.103L283.879 625.879L348.103 690.103H219.719ZM450.115 694.83L449.919 785.234L359.515 694.83H450.115ZM454.641 786.674L454.842 694.83H546.49L454.641 786.674ZM622.534 625.461L687.239 690.103H557.897L622.534 625.461ZM690.103 686.281L625.879 622.121L690.103 557.897V686.281ZM694.83 546.485V455.959L785.139 456.181L694.83 546.485Z" fill="#CFB691"/>
</g>
<g filter="url(#filter1_f_3682_8554)">
<path d="M793.343 456.197L793.349 454.646L795 452.995L694.83 352.824V211.17H553.17L453 111L352.83 211.17H211.17V352.83L114.197 449.803L112.657 449.798L112.652 451.349L111 453L211.17 553.17V694.83H352.83L453 795L553.17 694.83H694.83V553.17L791.803 456.197H793.343ZM786.769 451.454L694.83 451.227V359.515L786.769 451.454ZM585.015 317.751C566.277 308.901 547.327 310.277 530.759 319.927C505.531 334.621 495.881 353.46 484.384 373.606C481.309 380.45 479.848 383.446 477.9 387.273C476.65 388.051 477.482 328.47 477.482 294.18C511.322 294.18 548.025 294.18 580.415 294.18C580.415 282.958 580.415 265.94 580.415 250.246C538.709 250.246 497.405 250.246 455.811 250.246L455.885 215.897H551.222L619.035 283.71L585.015 317.751ZM399.554 510.088L424.31 485.31C423.596 495.426 422.055 505.753 419.483 516.604C412.723 514.355 406.059 512.258 399.554 510.088ZM414.841 532.145C404.73 554.393 396.182 575.984 376.697 587.746C361.908 596.671 346.022 598.809 330.079 594.082C325.813 592.817 322.727 591.367 320.048 589.673L385.452 524.205C395.091 527.217 404.979 530.028 414.841 532.145ZM424.66 478.265L394.562 508.389C374.749 501.524 356.741 493.425 343.064 477.545C335.859 469.785 330.926 462.417 328.094 455.054L424.157 455.292C424.728 462.962 424.919 470.574 424.66 478.265ZM521.305 524.332L588.731 591.69C585.396 593.272 581.008 594.866 575.328 596.03C536.703 603.949 495.722 568.749 492.536 533.056C492.536 533.056 509.236 528.694 521.305 524.332ZM487.115 516.557C487.115 516.557 484.082 503.35 482.097 485.173L508.379 511.427C501.423 513.645 494.288 515.376 487.115 516.557ZM481.388 477.773C480.79 470.706 480.403 463.131 480.43 455.43L578.943 455.673C577.594 459.363 575.672 463.057 573.121 466.773C559.951 485.914 537.973 500.947 513.386 509.739L481.388 477.773ZM560.306 342.487L484.834 418.032C491.197 394.202 504.546 375.713 524.147 357.451C535.242 346.79 547.263 342.164 560.306 342.487ZM451.073 250.246C408.917 250.246 366.439 250.246 322.901 250.246C322.901 266.861 322.901 280.147 322.901 295.032C359.806 295.032 395.022 295.032 430.059 295.032C430.059 326.501 430.271 361.315 430.271 387.188C430.271 387.188 409.457 349.701 395.382 333.52C373.976 308.906 347.108 306.614 320.477 317.031L287.055 283.641L354.793 215.903H451.147L451.073 250.246ZM417.286 413.74L346.377 342.905C352.787 342.889 359.086 344.382 365.242 347.589C375.406 353.819 384.293 360.727 393.022 370.276C404.46 382.79 412.342 397.156 417.286 413.74ZM315.777 319.011C312.823 320.44 310.43 322.06 309.832 322.483C309.737 335.282 311.923 354.841 311.923 354.841L318.291 351.919C325.68 347.378 332.985 344.477 340.173 343.381L419.647 422.775C420.515 426.639 421.261 430.604 421.86 434.701C422.638 440.058 423.278 445.33 423.765 450.565L326.585 450.327C323.298 437.798 325.977 425.035 333.864 410.119L336.833 404.397C328.676 404.397 312.929 405.117 310.711 405.249C303.798 405.662 304.332 406.895 300.971 411.485C293.169 422.14 291.501 437.586 293.084 450.242L215.892 450.052V354.788L283.704 286.976L315.777 319.011ZM293.852 454.974C294.699 459.183 295.906 462.92 297.351 465.826C307.598 486.417 330.105 505.541 356.916 514.789C364.411 517.287 372.298 519.976 380.387 522.586L316.163 586.878C314.326 585.417 312.5 583.808 310.362 582.008L310.446 583.697C310.446 587.085 310.404 590.012 310.346 592.706L283.884 619.194L215.897 551.212V454.779L293.852 454.974ZM310.171 599.561C310.076 603.631 310.017 607.506 310.144 612.138C310.144 612.138 309.869 618.86 315.406 621.888C334.515 632.353 354.555 630.347 376.284 619.257C396.796 607.924 411.336 588.291 423.114 567.298C424.85 564.202 429.646 556.706 429.556 554.637C429.556 587.476 428.323 650.71 429.53 653.552C430.265 655.283 439.867 655.659 450.2 655.469L450.126 690.103H354.793L287.225 622.534L310.171 599.561ZM454.927 655.347C460.85 655.151 466.614 654.802 470.696 654.458C477.826 653.849 477.275 650.848 477.275 645.157C477.275 615.271 477.64 590.763 476.365 561.089C476.349 557.627 476.19 553.446 476.19 553.446C476.19 553.446 480.324 560.692 482.6 564.683C491.948 581.066 500.28 599.619 516.837 612.693C535.904 627.748 573.714 635.439 590.954 623.603C593.892 621.586 595.861 610.465 596.835 599.778L619.204 622.126L551.222 690.108H454.847L454.927 655.347ZM597.285 593.553C597.449 590.695 597.528 588.021 597.528 585.745C597.528 585.745 596.194 587.317 593.05 589.324L526.132 522.475C554.663 510.872 581.749 501.381 601.821 475.253C606.109 469.669 609.316 462.957 611.27 455.753L690.103 455.948V551.212L622.534 618.781L597.285 593.553ZM612.36 451.031C614.954 437.327 613.059 422.394 605.431 410.257C605.431 410.257 603.848 407.171 602.536 406.228C598.19 403.127 566.79 404.418 566.907 404.582C578.197 420.568 583.967 435.744 580.367 450.952L480.504 450.708C480.716 442.583 481.43 434.431 482.87 426.692L566.483 342.995C574.508 344.101 582.908 346.938 591.7 351.279L594.998 353.38C595.914 343.588 596.814 338.358 597.01 327.057C596.104 323.854 593.606 322.271 589.44 320.016L622.364 287.055L690.103 354.793V451.221L612.36 451.031ZM625.704 283.704L690.103 219.243V348.103L625.704 283.704ZM686.763 215.897L622.359 280.364L557.897 215.897H686.763ZM455.885 211.17L456.081 120.766L546.485 211.17H455.885ZM451.359 119.326L451.158 211.17H359.515L451.359 119.326ZM283.704 280.296L219.243 215.897H348.103L283.704 280.296ZM215.897 219.237L280.364 283.641L215.897 348.103V219.237ZM211.17 359.515V450.041L120.861 449.819L211.17 359.515ZM119.231 454.546L211.17 454.773V546.49L119.231 454.546ZM280.539 622.534L215.897 687.239V557.897L280.539 622.534ZM219.719 690.103L283.879 625.879L348.103 690.103H219.719ZM450.115 694.83L449.919 785.234L359.515 694.83H450.115ZM454.641 786.674L454.842 694.83H546.49L454.641 786.674ZM622.534 625.461L687.239 690.103H557.897L622.534 625.461ZM690.103 686.281L625.879 622.121L690.103 557.897V686.281ZM694.83 546.485V455.959L785.139 456.181L694.83 546.485Z" fill="#CFB691"/>
</g>
<defs>
<filter id="filter0_f_3682_8554" x="0" y="0" width="906" height="906" filterUnits="userSpaceOnUse" color-interpolation-filters="sRGB">
<feFlood flood-opacity="0" result="BackgroundImageFix"/>
<feBlend mode="normal" in="SourceGraphic" in2="BackgroundImageFix" result="shape"/>
<feGaussianBlur stdDeviation="55.5" result="effect1_foregroundBlur_3682_8554"/>
</filter>
<filter id="filter1_f_3682_8554" x="103" y="103" width="700" height="700" filterUnits="userSpaceOnUse" color-interpolation-filters="sRGB">
<feFlood flood-opacity="0" result="BackgroundImageFix"/>
<feBlend mode="normal" in="SourceGraphic" in2="BackgroundImageFix" result="shape"/>
<feGaussianBlur stdDeviation="4" result="effect1_foregroundBlur_3682_8554"/>
</filter>
</defs>
</svg>
