<svg width="40" height="40" viewBox="0 0 40 40" fill="none" xmlns="http://www.w3.org/2000/svg">
<path d="M39.9031 20.187L39.9034 20.0963L40 19.9997L34.1421 14.1418V5.85792H25.8579L20 0L14.1421 5.85792H5.85792V14.1421L0.186968 19.813L0.096889 19.8127L0.0965793 19.9034L0 20L5.85792 25.8579V34.1421H14.1421L20 40L25.8579 34.1421H34.1421V25.8579L39.813 20.187H39.9031ZM39.5187 19.9096L34.1421 19.8963V14.533L39.5187 19.9096ZM27.7202 12.0907C26.6244 11.5731 25.5162 11.6536 24.5473 12.2179C23.072 13.0772 22.5077 14.1789 21.8353 15.3571C21.6555 15.7573 21.57 15.9325 21.4561 16.1563C21.3831 16.2018 21.4317 12.7175 21.4317 10.7123C23.4106 10.7123 25.557 10.7123 27.4512 10.7123C27.4512 10.056 27.4512 9.06083 27.4512 8.14301C25.0122 8.14301 22.5968 8.14301 20.1644 8.14301L20.1687 6.13435H25.744L29.7096 10.1L27.7202 12.0907ZM16.8745 23.3385L18.3222 21.8895C18.2805 22.481 18.1904 23.085 18.0399 23.7196C17.6446 23.588 17.2549 23.4654 16.8745 23.3385ZM17.7685 24.6284C17.1772 25.9294 16.6773 27.1921 15.5378 27.8799C14.673 28.4018 13.744 28.5269 12.8116 28.2504C12.5621 28.1764 12.3817 28.0916 12.225 27.9926L16.0498 24.1641C16.6135 24.3402 17.1918 24.5046 17.7685 24.6284ZM18.3427 21.4775L16.5826 23.2391C15.4239 22.8376 14.3708 22.364 13.571 21.4354C13.1497 20.9816 12.8612 20.5507 12.6956 20.1201L18.3133 20.134C18.3467 20.5826 18.3578 21.0277 18.3427 21.4775ZM23.9944 24.1715L27.9375 28.1105C27.7425 28.2031 27.4858 28.2962 27.1537 28.3643C24.8949 28.8274 22.4984 26.7689 22.312 24.6816C22.312 24.6816 23.2887 24.4266 23.9944 24.1715ZM21.995 23.7168C21.995 23.7168 21.8177 22.9444 21.7016 21.8814L23.2385 23.4168C22.8318 23.5465 22.4145 23.6477 21.995 23.7168ZM21.6601 21.4487C21.6251 21.0354 21.6025 20.5925 21.6041 20.1421L27.3651 20.1563C27.2862 20.3721 27.1738 20.5881 27.0246 20.8054C26.2544 21.9248 24.9692 22.8039 23.5313 23.3181L21.6601 21.4487ZM26.2752 13.5372L21.8616 17.9551C22.2337 16.5615 23.0144 15.4803 24.1607 14.4123C24.8095 13.7889 25.5125 13.5183 26.2752 13.5372ZM19.8873 8.14301C17.4221 8.14301 14.9379 8.14301 12.3919 8.14301C12.3919 9.11469 12.3919 9.89166 12.3919 10.7621C14.5501 10.7621 16.6095 10.7621 18.6584 10.7621C18.6584 12.6024 18.6708 14.6383 18.6708 16.1514C18.6708 16.1514 17.4536 13.9591 16.6306 13.0128C15.3787 11.5734 13.8075 11.4394 12.2501 12.0486L10.2956 10.096L14.2569 6.13465H19.8917L19.8873 8.14301ZM17.9115 17.7041L13.7647 13.5617C14.1396 13.5608 14.508 13.648 14.868 13.8356C15.4623 14.2 15.982 14.6039 16.4925 15.1624C17.1614 15.8941 17.6224 16.7343 17.9115 17.7041ZM11.9752 12.1644C11.8025 12.248 11.6626 12.3427 11.6276 12.3674C11.622 13.1159 11.7499 14.2597 11.7499 14.2597L12.1223 14.0888C12.5544 13.8232 12.9816 13.6536 13.402 13.5895L18.0495 18.2325C18.1003 18.4584 18.1439 18.6903 18.1789 18.9299C18.2244 19.2432 18.2619 19.5515 18.2904 19.8576L12.6073 19.8437C12.4151 19.111 12.5717 18.3646 13.033 17.4923L13.2066 17.1577C12.7296 17.1577 11.8087 17.1998 11.679 17.2076C11.2747 17.2317 11.306 17.3038 11.1094 17.5722C10.6532 18.1953 10.5556 19.0986 10.6482 19.8387L6.13404 19.8276V14.2566L10.0997 10.291L11.9752 12.1644ZM10.6931 20.1155C10.7426 20.3616 10.8132 20.5801 10.8977 20.75C11.497 21.9542 12.8132 23.0726 14.3811 23.6134C14.8194 23.7595 15.2806 23.9167 15.7536 24.0693L11.9978 27.8291C11.8904 27.7437 11.7836 27.6496 11.6586 27.5443L11.6635 27.6431C11.6635 27.8412 11.661 28.0124 11.6576 28.1699L10.1102 29.7189L6.13435 25.7434V20.104L10.6931 20.1155ZM11.6474 28.5708C11.6419 28.8089 11.6384 29.0354 11.6459 29.3063C11.6459 29.3063 11.6298 29.6994 11.9536 29.8765C13.071 30.4885 14.243 30.3712 15.5137 29.7226C16.7132 29.0599 17.5635 27.9118 18.2523 26.6841C18.3538 26.503 18.6343 26.0647 18.629 25.9437C18.629 27.8641 18.5569 31.562 18.6275 31.7282C18.6705 31.8294 19.232 31.8514 19.8363 31.8403L19.8319 33.8657H14.2569L10.3055 29.9143L11.6474 28.5708ZM20.1127 31.8332C20.4591 31.8217 20.7962 31.8013 21.0348 31.7811C21.4518 31.7456 21.4196 31.57 21.4196 31.2373C21.4196 29.4896 21.441 28.0563 21.3664 26.321C21.3654 26.1186 21.3561 25.874 21.3561 25.874C21.3561 25.874 21.5979 26.2978 21.731 26.5312C22.2777 27.4892 22.7649 28.5742 23.7332 29.3388C24.8482 30.2192 27.0593 30.6689 28.0675 29.9768C28.2393 29.8588 28.3544 29.2085 28.4114 28.5835L29.7195 29.8904L25.744 33.866H20.108L20.1127 31.8332ZM28.4377 28.2195C28.4473 28.0523 28.4519 27.896 28.4519 27.7629C28.4519 27.7629 28.3739 27.8548 28.1901 27.9721L24.2767 24.0628C25.9452 23.3843 27.5292 22.8293 28.703 21.3013C28.9537 20.9748 29.1413 20.5823 29.2555 20.161L33.8657 20.1724V25.7434L29.9143 29.6948L28.4377 28.2195ZM29.3193 19.8848C29.471 19.0834 29.3602 18.2102 28.9141 17.5004C28.9141 17.5004 28.8215 17.3199 28.7448 17.2648C28.4906 17.0834 26.6544 17.159 26.6612 17.1686C27.3215 18.1034 27.6589 18.9909 27.4484 19.8802L21.6084 19.866C21.6208 19.3908 21.6626 18.9141 21.7468 18.4615L26.6364 13.5669C27.1057 13.6316 27.597 13.7976 28.1111 14.0514L28.304 14.1743C28.3575 13.6016 28.4102 13.2958 28.4216 12.6349C28.3687 12.4476 28.2226 12.3551 27.979 12.2232L29.9044 10.2956L33.8657 14.2569V19.896L29.3193 19.8848ZM30.0997 10.0997L33.8657 6.32998V13.8657L30.0997 10.0997ZM33.6703 6.13435L29.904 9.90435L26.1343 6.13435H33.6703ZM20.1687 5.85792L20.1802 0.571119L25.467 5.85792H20.1687ZM19.904 0.486921L19.8923 5.85792H14.533L19.904 0.486921ZM10.0997 9.90033L6.32998 6.13435H13.8657L10.0997 9.90033ZM6.13435 6.32967L9.90435 10.096L6.13435 13.8657V6.32967ZM5.85792 14.533V19.827L0.576691 19.814L5.85792 14.533ZM0.481349 20.0904L5.85792 20.1037V25.4673L0.481349 20.0904ZM9.91457 29.9143L6.13435 33.6982V26.1343L9.91457 29.9143ZM6.35784 33.8657L10.1099 30.1099L13.8657 33.8657H6.35784ZM19.8313 34.1421L19.8198 39.4289L14.533 34.1421H19.8313ZM20.096 39.5131L20.1077 34.1421H25.4673L20.096 39.5131ZM29.9143 30.0854L33.6982 33.8657H26.1343L29.9143 30.0854ZM33.8657 33.6422L30.1099 29.8901L33.8657 26.1343V33.6422ZM34.1421 25.467V20.173L39.4233 20.186L34.1421 25.467Z" fill="#FDFDFD"/>
</svg>
